#N canvas 724 24 693 108 12;
#N canvas 703 81 846 1031 lister 0;
#X text 484 103 >>>;
#X msg 512 555 rewind;
#X msg 535 526 read seznam.txt cr;
#X obj 489 473 loadbang;
#X obj 489 590 delay 500;
#X obj 489 499 t b b b;
#X obj 466 308 f;
#X obj 498 307 + 1;
#X obj 466 104 bng 15 250 50 0 empty empty empty 17 7 0 10 -262144
-1 -1;
#X obj 135 304 f;
#X obj 166 305 - 1;
#X obj 135 105 bng 15 250 50 0 empty empty empty 17 7 0 10 -262144
-1 -1;
#X text 105 101 <<<;
#X obj 159 105 hsl 300 15 1 116 0 0 empty empty empty -2 -8 0 10 -262144
-1 -1 0 1;
#X msg 356 561 goto \$1;
#X msg 336 586 this;
#X obj 156 49 loadbang;
#X obj 480 902 symbol;
#X obj 480 861 bng 15 250 50 0 empty empty empty 17 7 0 10 -262144
-1 -1;
#X obj 336 620 msgfile;
#X msg 336 649 add2 \$1;
#X msg 376 536 set;
#X obj 396 713 bng 15 250 50 0 empty empty empty 17 7 0 10 -262144
-1 -1;
#X obj 396 738 t b b;
#X msg 480 927 \; pd-\$1 menuclose;
#X obj 361 866 getdir;
#X msg 361 929 \; pd open \$2 \$1;
#X obj 361 899 pack s s;
#X obj 361 809 unpack s;
#X obj 361 837 t b s s;
#X obj 336 463 i;
#X obj 166 331 clip 1 116;
#X obj 498 332 clip 0 116;
#X obj 336 489 t b f b b;
#X obj 396 515 delay 100;
#X text 495 876 aktual nozice;
#X msg 361 780 A01_zakladni_stavebni_kameny.pd;
#X obj 156 124 cnv 15 305 30 empty nazev_kapitoly A01_zakladni_stavebni_kameny.pd
0 12 0 12 -262144 -66577 0;
#X msg 156 73 1;
#X obj 290 175 i;
#X obj 273 388 s page;
#X obj 194 73 r page;
#X obj 217 841 s nazev_kapitoly;
#X msg 217 813 label \$1;
#X obj 290 200 t f f f;
#X connect 1 0 19 0;
#X connect 2 0 19 0;
#X connect 3 0 5 0;
#X connect 5 0 4 0;
#X connect 5 1 1 0;
#X connect 5 2 2 0;
#X connect 6 0 7 0;
#X connect 7 0 6 1;
#X connect 7 0 32 0;
#X connect 8 0 6 0;
#X connect 9 0 10 0;
#X connect 10 0 9 1;
#X connect 10 0 31 0;
#X connect 11 0 9 0;
#X connect 13 0 39 0;
#X connect 14 0 19 0;
#X connect 15 0 19 0;
#X connect 16 0 38 0;
#X connect 17 0 24 0;
#X connect 18 0 17 0;
#X connect 19 0 20 0;
#X connect 20 0 36 0;
#X connect 21 0 36 0;
#X connect 22 0 23 0;
#X connect 23 0 36 0;
#X connect 23 1 18 0;
#X connect 25 0 27 0;
#X connect 27 0 26 0;
#X connect 28 0 29 0;
#X connect 28 0 43 0;
#X connect 29 0 25 0;
#X connect 29 1 27 1;
#X connect 29 2 17 1;
#X connect 30 0 33 0;
#X connect 31 0 6 1;
#X connect 31 0 40 0;
#X connect 32 0 40 0;
#X connect 33 0 15 0;
#X connect 33 1 14 0;
#X connect 33 2 21 0;
#X connect 33 3 34 0;
#X connect 34 0 22 0;
#X connect 36 0 28 0;
#X connect 38 0 13 0;
#X connect 39 0 44 0;
#X connect 41 0 13 0;
#X connect 43 0 42 0;
#X connect 44 0 9 1;
#X connect 44 1 6 1;
#X connect 44 2 30 0;
#X coords 0 -1 1 1 420 60 2 100 100;
#X restore 57 27 pd lister;
#N canvas 97 513 589 500 no_menu 0;
#X obj 53 390 sys_gui;
#X obj 53 280 t s s;
#X msg 53 311 \$1 configure -menu "";
#X msg 84 351 set the_mbar [\$1 cget -menu];
#X obj 53 240 spigot 1;
#X obj 53 199 window_name 1;
#X obj 54 140 loadbang;
#X obj 95 171 bng 15 250 50 0 empty empty empty 17 7 0 10 -262144 -1
-1;
#X connect 1 0 2 0;
#X connect 1 1 3 0;
#X connect 2 0 0 0;
#X connect 3 0 0 0;
#X connect 4 0 1 0;
#X connect 5 0 4 0;
#X connect 6 0 5 0;
#X connect 7 0 5 0;
#X coords 0 -1 1 1 1 1 2 100 100;
#X restore 571 60 pd no_menu;
