#N canvas 1 54 718 1017 12;
#X obj 67 73 cnv 15 200 15 empty empty [DELAY] 2 8 0 12 -228856 -66577
0;
#X obj 87 224 delay 1000;
#X obj 87 254 bng 15 250 50 0 empty empty empty 17 7 0 10 -262144 -1
-1;
#X obj 87 195 bng 15 250 50 0 empty empty empty 17 7 0 10 -262144 -1
-1;
#X obj 388 260 bng 15 250 50 0 empty empty empty 17 7 0 10 -262144
-1 -1;
#X obj 388 180 tgl 15 0 empty empty empty 17 7 0 10 -262144 -1 -1 0
1;
#X msg 154 196 5000;
#X msg 199 196 500;
#X obj 388 204 metro 999;
#X obj 388 234 delay 1000;
#X text 468 220 Tento bang bude;
#X text 468 234 inicializován;
#X text 469 247 teprve až vypneme;
#X text 66 281 Zřetězením objektů [delay] získáme strukturu \,
díky které můžeme jedním tlačítkem spouštět další akce s
přesným zpožděním.;
#X obj 88 339 bng 15 250 50 0 empty empty empty 17 7 0 10 -262144 -1
-1;
#X obj 121 340 delay 1000;
#X obj 121 366 bng 15 250 50 0 empty empty empty 17 7 0 10 -262144
-1 -1;
#X obj 210 366 bng 15 250 50 0 empty empty empty 17 7 0 10 -262144
-1 -1;
#X obj 293 366 bng 15 250 50 0 empty empty empty 17 7 0 10 -262144
-1 -1;
#X obj 376 366 bng 15 250 50 0 empty empty empty 17 7 0 10 -262144
-1 -1;
#X obj 210 340 delay 500;
#X obj 293 340 delay 250;
#X obj 376 340 delay 125;
#X text 396 365 1875 ms;
#X obj 67 398 cnv 15 200 15 empty empty [PIPE] 2 8 0 12 -228856 -66577
0;
#X text 470 259 metro.;
#X text 448 339 : . . . .;
#X floatatom 87 531 5 0 0 0 - - -;
#X floatatom 87 469 5 0 0 0 - - -;
#X obj 87 500 pipe 1000;
#X obj 192 502 pipe 5000;
#X obj 195 532 hsl 128 15 0 127 0 0 empty empty empty -2 -8 0 10 -262144
-1 -1 0 1;
#X obj 195 472 hsl 128 15 0 127 0 0 empty empty empty -2 -8 0 10 -262144
-1 -1 0 1;
#X text 344 468 S [pipe] dokážeme;
#X text 344 482 přesně reprodukovat;
#X obj 67 567 cnv 15 200 15 empty empty [LINE] 2 8 0 12 -228856 -66577
0;
#X obj 83 771 line;
#X floatatom 83 801 5 0 0 0 - - -;
#X msg 83 681 5 6000;
#X msg 106 712 1 2000;
#X msg 117 742 100;
#X text 148 735 Pokud je ve zprávě jen jedno číslo \,;
#X obj 67 837 cnv 15 200 15 empty empty [TIMER] 2 8 0 12 -228856 -66577
0;
#X obj 510 884 timer;
#X obj 510 851 bng 15 250 50 0 empty empty empty 17 7 0 10 -262144
-1 -1;
#X obj 542 851 bng 15 250 50 0 empty empty empty 17 7 0 10 -262144
-1 -1;
#X floatatom 510 913 5 0 0 0 - - -;
#X text 440 673 Hodnotu \, od které;
#X text 440 697 pamatuje z předchozího;
#X text 440 711 počítání. Po vytvoření;
#X text 438 725 je v něm přednastavena;
#X text 439 738 nula.;
#X obj 519 776 line 0;
#X obj 445 776 line;
#X text 489 776 ==;
#X text 555 918 v mili-;
#X text 344 496 např. gesto v posuvníku.;
#X text 138 679 Napočítej do pěti za šest vteřin.;
#X text 157 711 Napočítej do jedné za dvě vteřiny.;
#X text 66 87 [delay] je "zbržďovač" bangů. Bang \, který mu dorazí
na levý vstup \, pozdrží o tolik miliseknund \, kolik má specifikováno
v argumentu. Pokud v čekání obdrží nový bang \, starší bang
se vymažte a interval se počítá od začátku. Časovou prodlevu
specifikujeme buď přímo argumentem nebo posláním číselné zprávy
do pravého vstupu.;
#X text 67 411 [pipe] funguje stejně jako [delay] \, jen nepracuje
s bangy \, ale s čísly a symboly. Přijaté zprávy pozdrží po
daný čas _ a z výstupu je vyšle ve stejném pořadí \, jako je
přijal.;
#X text 66 578 Třetím do sbírky objektů \, které pracují s časem
\, je [line]. Využijeme ho zejména později při konstrukci obálek.
Stručně řečeno: [line] se umí dopočítat určité hodnoty za
určitý čas. Když mu pošleme zprávu se dvěma čísly \, pak první
označuje hodnotu \, do které má [line] napočítat \, a druhá určuje
\, za kolik milisekund dané hodnoty dosáhne.;
#X text 440 685 se počítá \, si [line];
#X text 148 750 line skočí na danou hodnotu ihned.;
#X text 127 802 Glisando \, nebo obálka?;
#X text 555 929 sekundách.;
#X text 555 906 Prodleva;
#X text 66 850 A konečně posledním objektem na této straně \,
jenž má co do činění s časem \, je [timer]. Klikněte na levý
\, pak na pravý bang a [timer] vám na výstupu řekne \, jak dlouhá
mezi kliknutími byla prodleva. S [timer]em postavíme trenažéra
přesnosti úderů pro bubeníka \, nebo tzv. TAP button \, jímž
můžeme nastavit tempo sound systému podle poslechu vnějšího signálu.
;
#X obj 472 432 cnv 15 120 15 empty empty empty 20 12 0 14 -262144 -66577
0;
#X connect 1 0 2 0;
#X connect 3 0 1 0;
#X connect 5 0 8 0;
#X connect 6 0 1 1;
#X connect 7 0 1 1;
#X connect 8 0 9 0;
#X connect 9 0 4 0;
#X connect 14 0 15 0;
#X connect 15 0 16 0;
#X connect 16 0 20 0;
#X connect 17 0 21 0;
#X connect 18 0 22 0;
#X connect 20 0 17 0;
#X connect 21 0 18 0;
#X connect 22 0 19 0;
#X connect 28 0 29 0;
#X connect 29 0 27 0;
#X connect 30 0 31 0;
#X connect 32 0 30 0;
#X connect 36 0 37 0;
#X connect 38 0 36 0;
#X connect 39 0 36 0;
#X connect 40 0 36 0;
#X connect 43 0 46 0;
#X connect 44 0 43 0;
#X connect 45 0 43 1;
