#N canvas 1 54 718 1017 12;
#X obj 67 73 cnv 15 200 15 empty empty PROPOJUJEME 2 8 0 12 -228856
-66577 0;
#X text 379 217 .;
#X obj 76 702 f;
#X obj 76 465 bng 15 250 50 0 empty empty empty 17 7 0 10 -262144 -1
-1;
#X obj 85 502 vradio 15 1 0 13 empty empty empty 0 -8 0 10 -191407
-1 -1 0;
#X obj 202 429 sel 1 2 3 4 5 6 7 8 9 10 11 12 13 14 15 16;
#X floatatom 239 275 5 0 0 1 BPM - -;
#X obj 239 305 expr 60000 / $f1;
#X obj 202 338 metro;
#X obj 202 250 tgl 15 0 empty empty empty 17 7 0 10 -262144 -1 -1 1
1;
#X obj 202 370 f;
#X obj 245 370 + 1;
#X obj 245 400 mod 16;
#X floatatom 202 400 5 0 0 0 - - -;
#X msg 239 249 120;
#X obj 280 249 loadbang;
#X obj 110 702 f;
#X obj 110 465 bng 15 250 50 0 empty empty empty 17 7 0 10 -262144
-1 -1;
#X obj 119 502 vradio 15 1 0 13 empty empty empty 0 -8 0 10 -262144
-1 -1 7;
#X obj 144 702 f;
#X obj 144 465 bng 15 250 50 0 empty empty empty 17 7 0 10 -262144
-1 -1;
#X obj 153 502 vradio 15 1 0 13 empty empty empty 0 -8 0 10 -262144
-1 -1 7;
#X obj 178 702 f;
#X obj 178 465 bng 15 250 50 0 empty empty empty 17 7 0 10 -262144
-1 -1;
#X obj 187 502 vradio 15 1 0 13 empty empty empty 0 -8 0 10 -262144
-1 -1 0;
#X obj 213 702 f;
#X obj 213 465 bng 15 250 50 0 empty empty empty 17 7 0 10 -262144
-1 -1;
#X obj 222 502 vradio 15 1 0 13 empty empty empty 0 -8 0 10 -191407
-1 -1 0;
#X obj 247 702 f;
#X obj 247 465 bng 15 250 50 0 empty empty empty 17 7 0 10 -262144
-1 -1;
#X obj 256 502 vradio 15 1 0 13 empty empty empty 0 -8 0 10 -262144
-1 -1 0;
#X obj 281 702 f;
#X obj 281 465 bng 15 250 50 0 empty empty empty 17 7 0 10 -262144
-1 -1;
#X obj 290 502 vradio 15 1 0 13 empty empty empty 0 -8 0 10 -262144
-1 -1 3;
#X obj 315 702 f;
#X obj 315 465 bng 15 250 50 0 empty empty empty 17 7 0 10 -262144
-1 -1;
#X obj 324 502 vradio 15 1 0 13 empty empty empty 0 -8 0 10 -262144
-1 -1 5;
#X obj 351 702 f;
#X obj 351 465 bng 15 250 50 0 empty empty empty 17 7 0 10 -262144
-1 -1;
#X obj 360 502 vradio 15 1 0 13 empty empty empty 0 -8 0 10 -191407
-1 -1 0;
#X obj 385 702 f;
#X obj 385 465 bng 15 250 50 0 empty empty empty 17 7 0 10 -262144
-1 -1;
#X obj 394 502 vradio 15 1 0 13 empty empty empty 0 -8 0 10 -262144
-1 -1 0;
#X obj 419 702 f;
#X obj 419 465 bng 15 250 50 0 empty empty empty 17 7 0 10 -262144
-1 -1;
#X obj 428 502 vradio 15 1 0 13 empty empty empty 0 -8 0 10 -262144
-1 -1 0;
#X obj 453 702 f;
#X obj 453 465 bng 15 250 50 0 empty empty empty 17 7 0 10 -262144
-1 -1;
#X obj 462 502 vradio 15 1 0 13 empty empty empty 0 -8 0 10 -262144
-1 -1 0;
#X obj 488 702 f;
#X obj 488 465 bng 15 250 50 0 empty empty empty 17 7 0 10 -262144
-1 -1;
#X obj 497 502 vradio 15 1 0 13 empty empty empty 0 -8 0 10 -191407
-1 -1 0;
#X obj 522 702 f;
#X obj 522 465 bng 15 250 50 0 empty empty empty 17 7 0 10 -262144
-1 -1;
#X obj 531 502 vradio 15 1 0 13 empty empty empty 0 -8 0 10 -262144
-1 -1 0;
#X obj 556 702 f;
#X obj 556 465 bng 15 250 50 0 empty empty empty 17 7 0 10 -262144
-1 -1;
#X obj 565 502 vradio 15 1 0 13 empty empty empty 0 -8 0 10 -262144
-1 -1 0;
#X obj 590 702 f;
#X obj 590 465 bng 15 250 50 0 empty empty empty 17 7 0 10 -262144
-1 -1;
#X obj 599 502 vradio 15 1 0 13 empty empty empty 0 -8 0 10 -262144
-1 -1 0;
#X obj 303 777 nbx 2 20 -1e+37 1e+37 0 0 empty empty empty 0 -8 0 20
-262144 -1 -1 65 256;
#X obj 303 828 mtof;
#X obj 303 858 osc~;
#X obj 303 891 dac~;
#X msg 256 337 0;
#X msg 284 370 4;
#X msg 323 370 8;
#X msg 363 370 16;
#X text 158 352 -------------------------------------------;
#X text 67 739 Z důvodu prověření;
#X text 66 754 funkčnosti sekvenceru a abychom;
#X text 67 769 nezůstali jen u čísel \, je;
#X text 67 799 primitivním syntetizérem.;
#X text 68 814 Ten převádí MIDI hodnoty na;
#X text 67 842 oscilátoru.;
#X text 66 828 frekvence a ty dál přeposílá;
#X text 67 864 Nejprve do přepínačů;
#X text 67 891 a poté sekvencer spusťte.;
#X text 67 905 Za běhu můžete měnit tempo \,;
#X text 67 933 tóny melodie. Nezapomeňte;
#X text 66 946 zapnout DSP.;
#X text 380 770 Náš prototyp sekvenceru má;
#X text 379 784 řadu nedostatků: kód je příliš;
#X text 380 798 "rozlehlý" \, neumožňuje ukládání;
#X text 381 811 melodií \, takže po zavření patche;
#X text 381 825 přijdeme o všechna nastavení;
#X text 380 839 v přepínačích i číselných boxech \,;
#X text 380 854 změna délky sekvence se projeví;
#X text 263 807 --------------;
#X text 380 869 okamžitě a ne až se začátkem;
#X text 380 884 cyklu \, chybí informace o intenzitě;
#X text 380 922 Tyto nedokonalosti se;
#X text 380 935 pokusíme částečně vyřešit;
#X text 380 948 v nádledujících kapitolách.;
#X text 66 784 sekvencer doplněn velmi;
#X obj 303 752 expr_scale 12 0 60 72;
#X text 307 796 MIDI;
#X text 285 337 Vynulování sekvence.;
#X text 394 368 Délka sekvence.;
#X text 66 85 Poté \, co jsme postavili jednotlivé základní části
sekvenceru \, nám zbývá jen poslední krok \, a tím je jejich propojení.
U objektu [mod] jsme navíc doplnili hodnoty pro různě dlouhé sekvence.
Segment vytvářející jedinečnou MIDI notu jsme museli pochopitelně
16x duplikovat. Nebylo přitom nutné duplikovat celý segment kódu
\, ale pouze přepínač ___ s objektem [f] \, protože konverze je
pro všechny noty stejná. Bangy jsme v patchi nechali \, aby bylo
provádění sekvence dobře viditelné. Konverzi na MIDI jsme nahradili
objektem [expr_scale]. Nuže \, výsledný prototyp vypadá tako:;
#X text 67 879 "naklikejte" melodii \,;
#X text 67 919 délku sekvence i jednotlivé;
#X text 380 899 noty atd.;
#X obj 452 166 cnv 15 60 15 empty empty empty 20 12 0 14 -262144 -66577
0;
#X connect 2 0 96 0;
#X connect 3 0 2 0;
#X connect 4 0 2 1;
#X connect 5 0 3 0;
#X connect 5 1 17 0;
#X connect 5 2 20 0;
#X connect 5 3 23 0;
#X connect 5 4 26 0;
#X connect 5 5 29 0;
#X connect 5 6 32 0;
#X connect 5 7 35 0;
#X connect 5 8 38 0;
#X connect 5 9 41 0;
#X connect 5 10 44 0;
#X connect 5 11 47 0;
#X connect 5 12 50 0;
#X connect 5 13 53 0;
#X connect 5 14 56 0;
#X connect 5 15 59 0;
#X connect 6 0 7 0;
#X connect 7 0 8 1;
#X connect 8 0 10 0;
#X connect 9 0 8 0;
#X connect 10 0 11 0;
#X connect 11 0 12 0;
#X connect 11 0 13 0;
#X connect 12 0 10 1;
#X connect 13 0 5 0;
#X connect 14 0 6 0;
#X connect 15 0 14 0;
#X connect 16 0 96 0;
#X connect 17 0 16 0;
#X connect 18 0 16 1;
#X connect 19 0 96 0;
#X connect 20 0 19 0;
#X connect 21 0 19 1;
#X connect 22 0 96 0;
#X connect 23 0 22 0;
#X connect 24 0 22 1;
#X connect 25 0 96 0;
#X connect 26 0 25 0;
#X connect 27 0 25 1;
#X connect 28 0 96 0;
#X connect 29 0 28 0;
#X connect 30 0 28 1;
#X connect 31 0 96 0;
#X connect 32 0 31 0;
#X connect 33 0 31 1;
#X connect 34 0 96 0;
#X connect 35 0 34 0;
#X connect 36 0 34 1;
#X connect 37 0 96 0;
#X connect 38 0 37 0;
#X connect 39 0 37 1;
#X connect 40 0 96 0;
#X connect 41 0 40 0;
#X connect 42 0 40 1;
#X connect 43 0 96 0;
#X connect 44 0 43 0;
#X connect 45 0 43 1;
#X connect 46 0 96 0;
#X connect 47 0 46 0;
#X connect 48 0 46 1;
#X connect 49 0 96 0;
#X connect 50 0 49 0;
#X connect 51 0 49 1;
#X connect 52 0 96 0;
#X connect 53 0 52 0;
#X connect 54 0 52 1;
#X connect 55 0 96 0;
#X connect 56 0 55 0;
#X connect 57 0 55 1;
#X connect 58 0 96 0;
#X connect 59 0 58 0;
#X connect 60 0 58 1;
#X connect 61 0 62 0;
#X connect 62 0 63 0;
#X connect 63 0 64 0;
#X connect 63 0 64 1;
#X connect 65 0 10 1;
#X connect 66 0 12 1;
#X connect 67 0 12 1;
#X connect 68 0 12 1;
#X connect 96 0 61 0;
