#N canvas 1 54 718 1017 12;
#X obj 81 339 s posuvnik;
#X msg 81 80 label dynamicky_nazev;
#X msg 110 195 size \$1 \$2;
#X obj 110 168 pack f f;
#X floatatom 110 112 5 0 0 0 - - -;
#X floatatom 151 112 5 0 0 0 - - -;
#X msg 150 283 range 100 200;
#X msg 150 311 range 1 1000;
#X floatatom 133 223 5 0 0 0 - - -;
#X obj 128 142 t b f;
#X obj 399 82 r posuvnik;
#X obj 401 122 hsl 197 206 1 1000 0 0 empty empty dynamicky_nazev -2
-8 0 10 -258699 -257472 -258699 0 1;
#X floatatom 398 340 5 0 0 0 - - -;
#X text 241 80 Titulek posuvníku.;
#X text 194 113 Rozměry posuvníku.;
#X text 175 222 Barva pozadí \, táhla a titulku.;
#X text 254 277 Dynamická změna;
#X text 253 290 rozsahu posuvníku.;
#X msg 133 253 color \$1 999 \$1;
#X obj 71 379 cnv 15 200 15 empty empty VYTVÁŘENÍ_KÓDU_KÓDEM 2
8 0 12 -228856 -66577 0;
#X text 276 500 ejhle -->;
#X obj 92 966 s pd-dyn_subpatch;
#X msg 92 641 obj 10 10 bng;
#X msg 103 670 obj 10 30 f;
#X msg 116 699 obj 40 30 + 1;
#X msg 124 728 floatatom 10 60;
#X msg 129 769 connect 0 0 1 0;
#X msg 133 796 connect 1 0 2 0;
#X msg 137 824 connect 2 0 1 1;
#X msg 141 851 connect 1 0 3 0;
#X msg 153 909 obj 100 60 print;
#X msg 153 937 connect 4 0 5 0;
#X msg 153 880 msg 100 10 Kuk!;
#X text 194 666 Vytvoří objekt [f] na souřadnicích 10 30;
#X text 194 638 Vytvoří objekt [bng] (tedy bang) na souřadnicích
10 10;
#X text 572 638 .;
#X text 474 666 .;
#X text 221 698 atd.;
#X text 243 727 Vytvoří číselný box.;
#X text 264 755 Propojování je trochu složitější. Příkaz "connect"
;
#X text 264 768 má 4 argumenty: první je číslo označující pořadí
;
#X text 264 782 vytvoření objektu. První objekt vytvořený v patchi
;
#X text 265 797 má číslo nula. Druhé číslo označuje výstup
\, ze;
#X text 280 923 Poslední zapojení tedy vede z objektu \, který jsme
;
#X text 265 812 kterého vedeme kabel. Taktéž se počítá od nuly.
;
#X text 265 842 A konečně poslední číslo označuje vstup do něhož
;
#X text 265 856 kabel vedeme.;
#X text 279 949 do prvního vstupu pátého objektu.;
#X text 279 936 vytvořili jako čtvrý v pořadí \, z prvního výstupu
;
#X text 71 389 Tu pravou radost z metaprogramování si vychutnáme
\, když začneme vytvářet kód kódem. Nejprve si otevřeme nový
subpatch tím \, že do hlavního - rodičovského patche pošleme
zprávu ve tvaru [obj X Y pd nazev_subpatche(.;
#X text 264 828 Následuje číslo objektu \, do kterého kabel zapojujeme.
;
#X obj 81 501 s pd-A63_interni_zpravy.pd;
#X obj 446 598 cnv 15 60 15 empty empty empty 20 12 0 14 -262144 -66577
0;
#X msg 81 468 obj 350 500 pd dyn_subpatch;
#X text 71 530 V hlavním patchi s názvem "A63_interni_zpravy.pd"
jsme na souřadnicích 350 a 500 vytvořili subpatch s názvem "dyn_subpatch".
A nyní do tohoto subpatche můžeme posílat další zprávy a vytvořit
v něm funkční kód. Zprávy naklikávejte postupně odshora dolů
a pozorujte \, co se ____ v subpatchi děje!;
#X connect 1 0 0 0;
#X connect 2 0 0 0;
#X connect 3 0 2 0;
#X connect 4 0 3 0;
#X connect 5 0 9 0;
#X connect 6 0 0 0;
#X connect 7 0 0 0;
#X connect 8 0 18 0;
#X connect 9 0 3 0;
#X connect 9 1 3 1;
#X connect 10 0 11 0;
#X connect 11 0 12 0;
#X connect 18 0 0 0;
#X connect 22 0 21 0;
#X connect 23 0 21 0;
#X connect 24 0 21 0;
#X connect 25 0 21 0;
#X connect 26 0 21 0;
#X connect 27 0 21 0;
#X connect 28 0 21 0;
#X connect 29 0 21 0;
#X connect 30 0 21 0;
#X connect 31 0 21 0;
#X connect 32 0 21 0;
#X connect 53 0 51 0;
