#N canvas 453 182 1067 632 10;
#N canvas 1 54 450 300 (subpatch) 0;
#X array \$0-sekvence 16 float 3;
#A 0 1.71419 4.28568 6 6 6 6 6 6 6 6 6 6 6 2.05705 0.857025 10.2858
;
#X coords 0 12 16 0 130 70 1 0 0;
#X restore 102 102 graph;
#X obj 468 285 f;
#X obj 511 285 + 1;
#X obj 511 315 mod 16;
#X msg 550 285 4;
#X msg 587 286 8;
#X msg 626 286 16;
#X obj 468 102 inlet;
#X obj 550 256 sel 0 1 2;
#X obj 468 385 tabread \$0-sekvence;
#X obj 550 193 r global_seq;
#X obj 722 429 loadbang;
#X obj 722 459 \$0;
#X obj 468 542 outlet;
#X obj 510 101 r global_BPM;
#X obj 732 205 uzi 16;
#X obj 102 182 hradio 15 1 0 3 empty empty empty 0 -8 0 10 -262144
-1 -1 0;
#X obj 102 208 s \$0-seq;
#X obj 187 182 hradio 15 1 0 3 empty empty empty 0 -8 0 10 -262144
-1 -1 0;
#X obj 187 208 s \$0-octave;
#X obj 468 514 +;
#X obj 468 421 i;
#X obj 105 172 hsl 125 8 0 15 0 0 empty empty empty -2 -8 0 10 -262144
-258113 -1 1653 1;
#X obj 566 220 r \$0-seq;
#X obj 523 130 r global_reset;
#X obj 271 163 s \$0-reset;
#X obj 234 102 bng 15 250 50 0 empty empty empty 17 7 0 10 -262144
-1 -1;
#X msg 271 137 0;
#X obj 551 155 r \$0-reset;
#X obj 492 354 s \$0-seq_position;
#X obj -23 95 r \$0-seq_position;
#X obj 717 318 tabwrite \$0-sekvence;
#X msg 785 179 0;
#X obj 801 255 + 1;
#X obj 764 256 f;
#X obj 732 231 t b b;
#X obj 732 285 random 12;
#X obj 732 154 t b b---;
#X obj 520 440 sel 0 1 2;
#X msg 557 470 60;
#X msg 596 470 72;
#X msg 520 469 48;
#X obj 521 417 r \$0-octave;
#X obj 234 120 bng 15 250 50 0 empty empty empty 17 7 0 10 -262144
-1 -1;
#X msg 272 187 0;
#X obj 272 213 s \$0-rnd_seq;
#X obj 732 130 r \$0-rnd_seq;
#X obj 586 437 loadbang;
#X msg 722 485 \; \$1-sekvence const 6;
#X floatatom -8 152 5 0 0 0 - - -;
#X msg 490 251 0;
#X connect 1 0 2 0;
#X connect 1 0 29 0;
#X connect 1 0 9 0;
#X connect 2 0 3 0;
#X connect 3 0 1 1;
#X connect 4 0 3 1;
#X connect 5 0 3 1;
#X connect 6 0 3 1;
#X connect 7 0 1 0;
#X connect 8 0 4 0;
#X connect 8 1 5 0;
#X connect 8 2 6 0;
#X connect 9 0 21 0;
#X connect 10 0 8 0;
#X connect 11 0 12 0;
#X connect 12 0 48 0;
#X connect 14 0 1 0;
#X connect 15 0 35 0;
#X connect 16 0 17 0;
#X connect 18 0 19 0;
#X connect 20 0 13 0;
#X connect 21 0 20 0;
#X connect 23 0 8 0;
#X connect 24 0 50 0;
#X connect 26 0 27 0;
#X connect 27 0 25 0;
#X connect 28 0 50 0;
#X connect 30 0 22 0;
#X connect 30 0 49 0;
#X connect 32 0 34 1;
#X connect 33 0 34 1;
#X connect 34 0 33 0;
#X connect 34 0 31 1;
#X connect 35 0 36 0;
#X connect 35 1 34 0;
#X connect 36 0 31 0;
#X connect 37 0 15 0;
#X connect 37 1 32 0;
#X connect 38 0 41 0;
#X connect 38 1 39 0;
#X connect 38 2 40 0;
#X connect 39 0 20 1;
#X connect 40 0 20 1;
#X connect 41 0 20 1;
#X connect 42 0 38 0;
#X connect 43 0 44 0;
#X connect 44 0 45 0;
#X connect 46 0 37 0;
#X connect 47 0 39 0;
#X connect 50 0 1 1;
#X coords 0 -1 1 1 151 99 2 100 100;
