#N canvas 1 54 718 1017 12;
#N canvas 184 224 450 300 block16 0;
#X obj 19 86 +~;
#X obj 175 30 bng 15 250 50 0 empty empty empty 17 7 0 10 -262144 -1
-1;
#X obj 175 50 t b b b;
#X obj 18 30 osc~ 220;
#X obj 87 29 osc~ 110;
#X obj 123 119 print~ prvni_osc;
#X obj 245 119 print~ druhy_osc;
#X obj 20 119 print~ soucet;
#X obj 318 37 block~ 16;
#X connect 0 0 7 0;
#X connect 1 0 2 0;
#X connect 2 0 7 0;
#X connect 2 1 5 0;
#X connect 2 2 6 0;
#X connect 3 0 0 0;
#X connect 3 0 5 0;
#X connect 4 0 0 1;
#X connect 4 0 6 0;
#X restore 507 807 pd block16;
#N canvas 184 224 450 300 block64 0;
#X obj 19 86 +~;
#X obj 175 30 bng 15 250 50 0 empty empty empty 17 7 0 10 -262144 -1
-1;
#X obj 175 50 t b b b;
#X obj 18 30 osc~ 220;
#X obj 87 29 osc~ 110;
#X obj 123 119 print~ prvni_osc;
#X obj 245 119 print~ druhy_osc;
#X obj 20 119 print~ soucet;
#X obj 318 37 block~ 64;
#X connect 0 0 7 0;
#X connect 1 0 2 0;
#X connect 2 0 7 0;
#X connect 2 1 5 0;
#X connect 2 2 6 0;
#X connect 3 0 0 0;
#X connect 3 0 5 0;
#X connect 4 0 0 1;
#X connect 4 0 6 0;
#X restore 507 773 pd block64;
#X obj 530 169 osc~ 220;
#X obj 546 196 osc~ 110;
#X obj 529 224 +~;
#X obj 511 255 *~;
#X obj 511 291 dac~;
#X obj 511 226 tgl 15 0 empty empty empty 17 7 0 10 -262144 -1 -1 0
0.5;
#X obj 91 600 bng 15 250 50 0 empty empty empty 17 7 0 10 -262144 -1
-1;
#X obj 91 620 uzi 1e+07;
#X msg 91 727 \; pd audiostatus;
#X obj 91 648 f;
#X obj 127 649 + 1;
#X text 171 592 Zapněte DSP a příklad s dvěma oscilátory;
#X text 171 607 vpravo nahoře. Když pak klikneme na bang;
#X text 171 622 vlevo \, vyvoláme tím akci \, která na pár;
#X text 172 637 milisekund "zmrazí" zvuk. V konzoli uvidíme;
#X text 209 726 Vypíše do konzole typ chyby a čas;
#X text 210 741 uplynulý od jejího zaznamenání.;
#X text 300 220 --------------------------->;
#X text 70 70 Když kliknete na bang \, objeví se v konzoli spousta
čísel (případně si konzoli rozšiřte tak \, abyste viděli výstup
__ z obou oscilátorů i součet). Objekt [print~] \, na rozdíl od
objektu [print] \, umí přijmout signál a vytisknout jeden blok vzorků
do konzole. Jeden blok standardně obsahuje 64 vzorků a vskutku -
v konzoli uvidíme 3 x 64 různých hodnot \, které odpovídají amplitudám
jednotlivých oscilátorů ______ a jejich součtu. Zkuste si sečíst
hodnoty z oscilátorů ve stejném sloupci a řadě - výsledek by
měl odpovídat hodnotě \, kterou najdete v konzoli v položce součtet.
Součet oscilátorů si také poslechněte.;
#X obj 434 163 cnv 15 60 15 empty empty empty 20 12 0 14 -262144 -66577
0;
#X text 70 247 Zvukové objekty zpracovávají signál po blocích
o 64 vzorcích \, což při vzorkovací frekvenci 44100 vzorků za
vteřinu odpovídá zpracování jednoho bloku za cca. 1.45 milisekundy.
Ve srovnání s objekty \, které operují se zprávami \, toho mají
"víc na práci".;
#X text 70 332 Objekty \, které pracují se zprávami \, zaměstnávají
procesor počítače pouze tehdy \, když je po nich vyžadována nějaká
akce \, oproti tomu zvukové objekty začnou počítat proud vzorků
ve chvíli \, kdy zapneme DSP. Procesor zatěžují _____ i objekty
\, které zrovna "hrají" jen samé nuly.;
#X text 70 417 Pd fungují tak \, že vždy nejprve spočítají jeden
blok ve zvukových objektech \, a pak se ev. věnují výpočtům _________
v objektech \, které pracují se zprávami. Během počítání jednoho
bloku (cca 1.45 ms) nemůže být proveden žádný výpočet související
se zprávami - ty se odhrávají "mezi" bloky. Pokud bychom provedli
nějakou extrémní akci \, např. inicializovali bang \, jenž pošle
deset miliónů bangů do počítadla \, tato operace bude trvat déle
\, než je spočtení jednoho bloku v audio objektech a ve zvukovém
bufferu zůstane "viset" déle jeden blok - uslyšíme pak charakteristickou
chybu.;
#X text 172 652 hlášku informující nás o chybě zvukového I/O.
;
#X text 70 679 O poslední chybě \, související s počítáním
zvuku v reálném čase \, se můžete informovat následující interní
zprávou.;
#X text 70 774 Délku bloku můžeme v některých případech změnit
příkazem [block~]. Podívejte se do subpatchů napravo a klikněte
___ v nich na bang. Uvidíte \, že do konzole se vypisuje různý
počet hodnot.;
#X text 70 844 V jak dlouhých intervalech probíhají výpočty ve
zvukových objektech se odvíjí od délky bloku a vzorkovací frekvence.
Standardně tedy zvukové objekty "tikají" rychlostí 1.45 ms. Objekty
pracující se zprávami "tikají" pomaleji. Např. objekt [line] má
přednastavenu rychlost 20 ms.;
#X obj 463 89 cnv 15 60 15 empty empty empty 20 12 0 14 -262144 -66577
0;
#X obj 437 384 cnv 15 60 15 empty empty empty 20 12 0 14 -262144 -66577
0;
#X obj 417 435 cnv 15 120 15 empty empty empty 20 12 0 14 -262144 -66577
0;
#X obj 456 793 cnv 15 40 15 empty empty empty 20 12 0 14 -262144 -66577
0;
#X connect 2 0 4 0;
#X connect 3 0 4 1;
#X connect 4 0 5 1;
#X connect 5 0 6 0;
#X connect 5 0 6 1;
#X connect 7 0 5 0;
#X connect 8 0 9 0;
#X connect 9 0 11 0;
#X connect 11 0 12 0;
#X connect 12 0 11 1;
