#N canvas 1 54 718 1017 12;
#X obj 86 776 line~;
#X obj 85 829 osc~ 440;
#X msg 86 666 220 \, 440 2000;
#X obj 93 537 dac~;
#X obj 71 575 cnv 15 200 15 empty empty [LINE~]_A_OVLÁDÁNÍ_FREKVENCE
2 8 0 12 -228856 -66577 0;
#X obj 95 297 envgen 200 100 1 0  ;
#X obj 93 74 bng 15 250 50 0 empty empty empty 17 7 0 10 -262144 -1
-1;
#X msg 123 181 duration \$1;
#X floatatom 123 156 5 0 0 0 - - -;
#X obj 127 135 hsl 128 15 10 2000 0 0 empty empty empty -2 -8 0 10
-262144 -1 -1 0 1;
#X msg 140 215 0 50 1 50;
#X obj 93 448 line~;
#X obj 112 474 osc~ 440;
#X obj 93 502 *~;
#X msg 93 418 \$1 \$2;
#X text 214 179 Nastavení délky celkového trvání průběhu obálky.
;
#X text 262 131 10..2000 ms.;
#X text 215 214 "reset";
#X obj 150 417 print;
#X text 308 290 Objekt [envgen 200 100]. Klikáním LTM;
#X text 308 303 myši můžeme specifikovat kontrolní body;
#X text 308 316 obálky.;
#N canvas 168 307 450 300 s 0;
#X obj 185 96 loadbang;
#X obj 185 173 outlet;
#X obj 100 100 cnv 15 15 15 empty empty empty 20 12 0 14 -191407 -66577
0;
#X msg 183 122 0 35.2369 0.731789 110.655 0.207073 247.616 0.207073
399.957 0;
#X connect 0 0 3 0;
#X connect 3 0 1 0;
#X coords 0 -1 1 1 15 15 2 100 100;
#X restore 93 298 pd s;
#X msg 150 252 dump;
#X obj 296 409 print;
#X text 190 251 Vypíše kompletní seznam hodnot a časů na pravý
výstup.;
#N canvas 191 413 741 433 save 0;
#X obj 73 134 envgen 203 123 1 0  ;
#X msg 71 73 dump;
#X obj 277 278 list prepend set;
#X obj 277 310 list trim;
#X msg 277 377 0 50 1 50 0;
#X text 114 73 Hodnoty z obálky uložíme do zprávy;
#X obj 294 344 loadbang;
#X text 363 342 A při otevření patche zprávu inicializujeme.;
#X connect 0 1 2 0;
#X connect 1 0 0 0;
#X connect 2 0 3 0;
#X connect 3 0 4 0;
#X connect 4 0 0 0;
#X connect 6 0 4 0;
#X restore 411 396 pd save;
#X text 308 344 Na to \, jak obsah obálky jednoduše;
#X text 307 371 subpatche:;
#X obj 119 941 dac~;
#X obj 84 885 *~;
#X obj 102 863 tgl 15 0 empty empty empty 17 7 0 10 -262144 -1 -1 0
1;
#X obj 175 829 phasor~ 440;
#X obj 174 890 *~;
#X obj 192 868 tgl 15 0 empty empty empty 17 7 0 10 -262144 -1 -1 0
1;
#X msg 136 752 440 \, 220 5000;
#X text 190 664 Skoč na 220 Hz a pak za dvě vteřiny vystoupej na
440 Hz.;
#X text 189 693 Skoč na 440 Hz a pak za 50 ms sestup na 220 Hz.;
#X msg 112 724 4400 \, 110 50;
#X text 208 724 Skoč na 4400 Hz a pak za 50 ms sestup na 110 Hz.;
#X text 236 752 Skoč na 440 Hz a pak za pět vteřin sestup na 440
Hz.;
#X msg 99 694 440 \, 220 50;
#X text 111 70 Bang na výstupu objektu [envgen] vytvoří seznamy
o dvou hodnotách pro objekt [line~] \, které na něj v daný čas
posílá. Podívejte se na výpis do konzole.;
#X text 307 357 uložit \, se podívejte do tohoto;
#X text 70 587 Objekt [line~] nemusí sloužit pouze k ovládání
amplitudy \, ale můžeme jím řídit i frekvenci v některých generátorech
signálu. Lze tak vytvářet lineárně stoupající nebo klesající
glisanda.;
#X connect 0 0 1 0;
#X connect 0 0 32 0;
#X connect 1 0 30 0;
#X connect 2 0 0 0;
#X connect 5 0 14 0;
#X connect 5 0 18 0;
#X connect 5 1 24 0;
#X connect 6 0 5 0;
#X connect 7 0 5 0;
#X connect 8 0 7 0;
#X connect 9 0 8 0;
#X connect 10 0 5 0;
#X connect 11 0 13 0;
#X connect 12 0 13 1;
#X connect 13 0 3 1;
#X connect 13 0 3 0;
#X connect 14 0 11 0;
#X connect 22 0 5 0;
#X connect 23 0 5 0;
#X connect 30 0 29 0;
#X connect 30 0 29 1;
#X connect 31 0 30 1;
#X connect 32 0 33 0;
#X connect 33 0 29 0;
#X connect 33 0 29 1;
#X connect 34 0 33 1;
#X connect 35 0 0 0;
#X connect 38 0 0 0;
#X connect 41 0 0 0;
