#N canvas 1 54 718 1017 12;
#X obj 92 562 analyzer;
#X obj 348 541 tgl 15 0 empty empty empty 17 7 0 10 -262144 -1 -1 0
1;
#X obj 92 539 catch~ signal;
#X obj 92 740 dac~;
#X obj 131 275 *~;
#X obj 92 302 +~;
#X obj 91 330 osc~;
#X obj 132 225 osc~;
#X obj 91 204 sig~;
#X obj 94 173 hsl 128 15 100 3000 0 0 empty empty empty -2 -8 0 10
-262144 -1 -1 0 1;
#X obj 91 357 *~;
#X obj 121 358 tgl 15 0 empty empty empty 17 7 0 10 -262144 -1 -1 0
1;
#X obj 92 384 throw~ signal;
#X text 231 168 Nosná frekvence 50..3000 Hz.;
#X obj 135 204 hsl 128 15 1 100 0 0 empty empty empty -2 -8 0 10 -262144
-1 -1 0 1;
#X obj 152 254 hsl 128 15 0 1000 0 0 empty empty empty -2 -8 0 10 -262144
-1 -1 0 1;
#X text 291 251 Její rozsah +- 1000 Hz.;
#X text 273 199 Modulační frekvence 1..100 Hz.;
#X obj 501 871 osc~;
#X obj 501 898 *~;
#X obj 531 898 tgl 15 0 empty empty empty 17 7 0 10 -262144 -1 -1 0
1;
#X obj 502 923 throw~ signal;
#X obj 500 846 +~;
#X obj 537 650 *~;
#X obj 519 675 *~;
#X obj 518 542 *~;
#X obj 536 786 *~;
#X obj 519 812 *~;
#X obj 517 463 phasor~ 0.3;
#X obj 537 490 osc~ 0.5;
#X obj 554 596 phasor~ 0.2;
#X obj 554 624 *~ 500;
#X obj 537 569 osc~ 50;
#X obj 536 517 *~ 10;
#X obj 500 425 sig~ 220;
#X obj 536 704 LFO_noise~ 1;
#X obj 554 731 phasor~ 0.1;
#X obj 554 759 *~ 10;
#X text 70 885 Zkuste tedy nějaký čas věnovat experimentování
s různými typy syntéz. Díky jejich kombinaci \, tvarování vln
a užívání odlišných typů generátorů signálu se vám otevírá
poměrně široké pole pro sonická dobrodružství.;
#X text 70 68 Poslechněte si poslední příklad a podívejte se na
něj ____ v abstrakci [analyzer]. Ve spektru uvidíte \, jak se nosná
frekvence pohybuje v rozsahu 500..1500 Hz. Jednotlivé parametry můžeme
samozřejmě dynamicky ovládat. Vyzkoušejte různá nastavení \,
poslouchejte a pozorujte \, jak se charakter signálu mění.;
#X text 70 770 Jsme na konci kapitoly \, která se týkala základních
typů syntéz. I když byl náš výklad zjednodušující a nešel
až ___ k základům problematiky DSP \, poskytl snad dostatečnou
škálu možností pro započetí vlastních experimentů a konstrukci
zvukových syntetizérů. Určité oblasti z průzkumu zvuku budeme
s to aplikovat dobře i v části zabývající se obrazem - např.
obálku.;
#X obj 460 789 cnv 15 30 15 empty empty empty 20 12 0 14 -262144 -66577
0;
#X obj 446 73 cnv 15 120 15 empty empty empty 20 12 0 14 -262144 -66577
0;
#X text 71 414 Větev patche \, která se stará o frekvenční modulaci
\, může být samozřejmě mnohem složitější a lze v ní kombinovat
různé typy generátorů signálu. Zkuste k některým objektům _
z vedlešího příkladu připojit ovládací prvky a proměnit ho
tak na experimentální FM nástroj. Každou z částí patche prozkoumejte
v [analyzer]u zvlášť \, pak vám snad bude jasnější \, co která
dělá.;
#X obj 474 447 cnv 15 20 15 empty empty empty 20 12 0 14 -262144 -66577
0;
#X connect 0 0 3 0;
#X connect 0 0 3 1;
#X connect 1 0 0 1;
#X connect 2 0 0 0;
#X connect 4 0 5 1;
#X connect 5 0 6 0;
#X connect 6 0 10 0;
#X connect 7 0 4 0;
#X connect 8 0 5 0;
#X connect 9 0 8 0;
#X connect 10 0 12 0;
#X connect 11 0 10 1;
#X connect 14 0 7 0;
#X connect 15 0 4 1;
#X connect 18 0 19 0;
#X connect 19 0 21 0;
#X connect 20 0 19 1;
#X connect 22 0 18 0;
#X connect 23 0 24 1;
#X connect 24 0 27 0;
#X connect 25 0 24 0;
#X connect 26 0 27 1;
#X connect 27 0 22 1;
#X connect 28 0 25 0;
#X connect 29 0 33 0;
#X connect 30 0 31 0;
#X connect 31 0 23 1;
#X connect 32 0 23 0;
#X connect 33 0 25 1;
#X connect 34 0 22 0;
#X connect 35 0 26 0;
#X connect 36 0 37 0;
#X connect 37 0 26 1;
