#N canvas 1 54 718 1017 12;
#X obj 67 73 cnv 15 200 15 empty empty 8MI_HLASÝ_SYNTETIZÉR 2 8 0
12 -228856 -66577 0;
#X obj 89 173 notein;
#X obj 89 225 pack f f f;
#X obj 89 252 route 1 2 3 4 5 6 7 8;
#X obj 74 376 cnv 15 160 320 empty empty empty 20 12 0 14 -233017 -66577
0;
#X obj 89 200 poly 8 1;
#N canvas 543 823 472 351 voice 0;
#X obj 50 -9454 inlet;
#X obj 50 -9420 unpack f f;
#X obj 117 -9386 sel 0;
#X obj 50 -9361 mtof;
#X msg 117 -9351 0 10;
#X obj 149 -9311 / 127;
#X msg 149 -9282 \$1 10;
#X obj 66 -9228 line~;
#X obj 50 -9267 osc~;
#X obj 49 -9198 *~;
#X obj 49 -9171 throw~ voice;
#X connect 0 0 1 0;
#X connect 1 0 3 0;
#X connect 1 1 2 0;
#X connect 2 0 4 0;
#X connect 2 1 5 0;
#X connect 3 0 8 0;
#X connect 4 0 7 0;
#X connect 5 0 6 0;
#X connect 6 0 7 0;
#X connect 7 0 9 1;
#X connect 8 0 9 0;
#X connect 9 0 10 0;
#X restore 86 868 pd voice;
#X obj 86 761 notein;
#X obj 86 813 pack f f f;
#N canvas 539 823 472 351 voice 0;
#X obj 50 -9454 inlet;
#X obj 50 -9420 unpack f f;
#X obj 117 -9386 sel 0;
#X obj 50 -9361 mtof;
#X msg 117 -9351 0 10;
#X obj 149 -9311 / 127;
#X msg 149 -9282 \$1 10;
#X obj 66 -9228 line~;
#X obj 50 -9267 osc~;
#X obj 49 -9198 *~;
#X obj 49 -9171 throw~ voice;
#X connect 0 0 1 0;
#X connect 1 0 3 0;
#X connect 1 1 2 0;
#X connect 2 0 4 0;
#X connect 2 1 5 0;
#X connect 3 0 8 0;
#X connect 4 0 7 0;
#X connect 5 0 6 0;
#X connect 6 0 7 0;
#X connect 7 0 9 1;
#X connect 8 0 9 0;
#X connect 9 0 10 0;
#X restore 104 893 pd voice;
#N canvas 539 823 472 351 voice 0;
#X obj 50 -9454 inlet;
#X obj 50 -9420 unpack f f;
#X obj 117 -9386 sel 0;
#X obj 50 -9361 mtof;
#X msg 117 -9351 0 10;
#X obj 149 -9311 / 127;
#X msg 149 -9282 \$1 10;
#X obj 66 -9228 line~;
#X obj 50 -9267 osc~;
#X obj 49 -9198 *~;
#X obj 49 -9171 throw~ voice;
#X connect 0 0 1 0;
#X connect 1 0 3 0;
#X connect 1 1 2 0;
#X connect 2 0 4 0;
#X connect 2 1 5 0;
#X connect 3 0 8 0;
#X connect 4 0 7 0;
#X connect 5 0 6 0;
#X connect 6 0 7 0;
#X connect 7 0 9 1;
#X connect 8 0 9 0;
#X connect 9 0 10 0;
#X restore 140 941 pd voice;
#N canvas 537 823 472 351 voice 0;
#X obj 50 -9454 inlet;
#X obj 50 -9420 unpack f f;
#X obj 117 -9386 sel 0;
#X obj 50 -9361 mtof;
#X msg 117 -9351 0 10;
#X obj 149 -9311 / 127;
#X msg 149 -9282 \$1 10;
#X obj 66 -9228 line~;
#X obj 50 -9267 osc~;
#X obj 49 -9198 *~;
#X obj 49 -9171 throw~ voice;
#X connect 0 0 1 0;
#X connect 1 0 3 0;
#X connect 1 1 2 0;
#X connect 2 0 4 0;
#X connect 2 1 5 0;
#X connect 3 0 8 0;
#X connect 4 0 7 0;
#X connect 5 0 6 0;
#X connect 6 0 7 0;
#X connect 7 0 9 1;
#X connect 8 0 9 0;
#X connect 9 0 10 0;
#X restore 122 917 pd voice;
#X obj 284 765 catch~ voice;
#X obj 284 850 *~;
#X obj 311 816 line~;
#X msg 311 791 \$1 10;
#X obj 285 878 dac~;
#X obj 86 388 inlet;
#X obj 86 418 unpack f f;
#X obj 153 452 sel 0;
#X obj 86 477 mtof;
#X msg 153 481 0 10;
#X obj 185 512 / 127;
#X msg 185 541 \$1 10;
#X obj 102 610 line~;
#X obj 86 571 osc~;
#X obj 85 640 *~;
#X obj 85 667 throw~ voice;
#X text 249 369 Nejprve seznam rozbalíme na samostatné hodnoty.;
#X text 249 384 Nalevo je hodnota MIDI noty a napravo její síla.
;
#X text 249 399 MIDI notu převádíme na frekvenci objektem [mtof]
;
#X text 248 413 a posíláme ji rovnou do [osc~].;
#X text 155 379 [pd voice];
#X text 247 438 Jestliže uvolníme klávesu a hodnota síly noty;
#X text 247 465 [0 10( \, což znamená \, že za deset milisekund
;
#X text 249 480 daný hlas ztišíme. Pakliže je síla různá od
;
#X text 249 495 nuly \, dělíme ji 127 (rozsah síly je v MIDI;
#X text 249 509 standardu v rozsahu 0..127) a posíláme ji do;
#X text 249 523 zprávy [\$1 10( a následně do [line~].;
#X text 249 547 Maximální hodnota v této velmi jednoduché;
#X text 248 583 Signál posíláme bezdrátově na zvukovou sběrnici
;
#X text 246 597 jménem voice.;
#X obj 86 788 poly 8 1;
#X obj 86 840 route 1 2 3 4 5 6 7 8;
#N canvas 543 823 472 351 voice 0;
#X obj 50 -9454 inlet;
#X obj 50 -9420 unpack f f;
#X obj 117 -9386 sel 0;
#X obj 50 -9361 mtof;
#X msg 117 -9351 0 10;
#X obj 149 -9311 / 127;
#X msg 149 -9282 \$1 10;
#X obj 66 -9228 line~;
#X obj 50 -9267 osc~;
#X obj 49 -9198 *~;
#X obj 49 -9171 throw~ voice;
#X connect 0 0 1 0;
#X connect 1 0 3 0;
#X connect 1 1 2 0;
#X connect 2 0 4 0;
#X connect 2 1 5 0;
#X connect 3 0 8 0;
#X connect 4 0 7 0;
#X connect 5 0 6 0;
#X connect 6 0 7 0;
#X connect 7 0 9 1;
#X connect 8 0 9 0;
#X connect 9 0 10 0;
#X restore 158 868 pd voice;
#N canvas 537 823 472 351 voice 0;
#X obj 50 -9454 inlet;
#X obj 50 -9420 unpack f f;
#X obj 117 -9386 sel 0;
#X obj 50 -9361 mtof;
#X msg 117 -9351 0 10;
#X obj 149 -9311 / 127;
#X msg 149 -9282 \$1 10;
#X obj 66 -9228 line~;
#X obj 50 -9267 osc~;
#X obj 49 -9198 *~;
#X obj 49 -9171 throw~ voice;
#X connect 0 0 1 0;
#X connect 1 0 3 0;
#X connect 1 1 2 0;
#X connect 2 0 4 0;
#X connect 2 1 5 0;
#X connect 3 0 8 0;
#X connect 4 0 7 0;
#X connect 5 0 6 0;
#X connect 6 0 7 0;
#X connect 7 0 9 1;
#X connect 8 0 9 0;
#X connect 9 0 10 0;
#X restore 176 893 pd voice;
#N canvas 537 823 472 351 voice 0;
#X obj 50 -9454 inlet;
#X obj 50 -9420 unpack f f;
#X obj 117 -9386 sel 0;
#X obj 50 -9361 mtof;
#X msg 117 -9351 0 10;
#X obj 149 -9311 / 127;
#X msg 149 -9282 \$1 10;
#X obj 66 -9228 line~;
#X obj 50 -9267 osc~;
#X obj 49 -9198 *~;
#X obj 49 -9171 throw~ voice;
#X connect 0 0 1 0;
#X connect 1 0 3 0;
#X connect 1 1 2 0;
#X connect 2 0 4 0;
#X connect 2 1 5 0;
#X connect 3 0 8 0;
#X connect 4 0 7 0;
#X connect 5 0 6 0;
#X connect 6 0 7 0;
#X connect 7 0 9 1;
#X connect 8 0 9 0;
#X connect 9 0 10 0;
#X restore 212 943 pd voice;
#N canvas 535 823 472 351 voice 0;
#X obj 50 -9454 inlet;
#X obj 50 -9420 unpack f f;
#X obj 117 -9386 sel 0;
#X obj 50 -9361 mtof;
#X msg 117 -9351 0 10;
#X obj 149 -9311 / 127;
#X msg 149 -9282 \$1 10;
#X obj 66 -9228 line~;
#X obj 50 -9267 osc~;
#X obj 49 -9198 *~;
#X obj 49 -9171 throw~ voice;
#X connect 0 0 1 0;
#X connect 1 0 3 0;
#X connect 1 1 2 0;
#X connect 2 0 4 0;
#X connect 2 1 5 0;
#X connect 3 0 8 0;
#X connect 4 0 7 0;
#X connect 5 0 6 0;
#X connect 6 0 7 0;
#X connect 7 0 9 1;
#X connect 8 0 9 0;
#X connect 9 0 10 0;
#X restore 194 917 pd voice;
#X obj 379 766 vsl 15 128 0 0.2 0 0 empty empty empty 0 -9 0 10 -262144
-1 -1 0 1;
#X text 174 192 8 hlasů - 8 zpráv s jedinečným pořadovým číselm.
;
#X text 174 206 Přebírání hlasů je zapnuto.;
#X text 407 757 Prověřte klaviaturou;
#X text 406 771 funkčnost syntetizéru;
#X text 407 784 a zkuste v [pd voice];
#X text 407 797 nahradit oscilátor;
#X text 407 813 nějakým komplexnějším;
#X text 406 828 typem syntézy.;
#X text 407 857 Ev. se pokuste vylepšit;
#X text 407 870 obálku tak \, aby byla;
#X text 407 883 dynamicky nastavitelná.;
#X text 66 283 Objektem [route] budeme posílat seznam o dvou prvcích
(nota a síla) jednotlivým hlasům. Nyní tedy musíme vytvořit část
patche \, která seznam zpracuje \, zahraje notu o dané výšce _
a bude řídit obálku. Uzavřeme ji pro přehlednost do subpatche
[pd voice]. Uvnitř bude vypadat takto:;
#X obj 464 322 cnv 15 120 15 empty empty empty 20 12 0 14 -262144 -66577
0;
#X text 66 84 Předchozí látku budeme prakticky demonstrovat na konstrukci
jednoduchého polyfonního syntetizéru. Část patche \, která bude
číst informace z MIDI kontroleru a vytvářet osm jedinečných zpráv
odpovídajících až osmi současně stisknutým klávesám \, bude
vypadat takto:;
#X text 246 451 je nulová \, do [line~] posíláme zprávu;
#X text 249 562 AR obálce se řídí podle síly stlačení klávesy.
;
#X text 67 699 Propojíme-li nyní první část patche se subpatchi
a ještě "chytáme" signál ze sběrnice voice \, máme 8mihlasý
syntetizér hotov.;
#X connect 1 0 5 0;
#X connect 1 1 5 1;
#X connect 2 0 3 0;
#X connect 5 0 2 0;
#X connect 5 1 2 1;
#X connect 5 2 2 2;
#X connect 7 0 42 0;
#X connect 7 1 42 1;
#X connect 8 0 43 0;
#X connect 12 0 13 0;
#X connect 13 0 16 0;
#X connect 13 0 16 1;
#X connect 14 0 13 1;
#X connect 15 0 14 0;
#X connect 17 0 18 0;
#X connect 18 0 20 0;
#X connect 18 1 19 0;
#X connect 19 0 21 0;
#X connect 19 1 22 0;
#X connect 20 0 25 0;
#X connect 21 0 24 0;
#X connect 22 0 23 0;
#X connect 23 0 24 0;
#X connect 24 0 26 1;
#X connect 25 0 26 0;
#X connect 26 0 27 0;
#X connect 42 0 8 0;
#X connect 42 1 8 1;
#X connect 42 2 8 2;
#X connect 43 0 6 0;
#X connect 43 1 9 0;
#X connect 43 2 11 0;
#X connect 43 3 10 0;
#X connect 43 4 44 0;
#X connect 43 5 45 0;
#X connect 43 6 47 0;
#X connect 43 7 46 0;
#X connect 48 0 15 0;
