#N canvas 1 54 718 1017 12;
#X obj 860 107 cnv 15 100 60 empty empty empty 20 12 0 14 -262144 -66577
0;
#X obj 67 73 cnv 15 200 15 empty empty POSUN_ROTACE_ŠKÁLOVÁNÍ 2
8 0 12 -228856 -66577 0;
#X obj 332 161 gemwin_abs;
#X obj 89 503 scaleXYZ;
#X obj 89 183 gemhead;
#X obj 89 555 cube;
#X obj 89 161 tgl 15 0 empty empty empty 17 7 0 10 -262144 -1 -1 0
1;
#X obj 89 280 translateXYZ;
#X obj 116 211 vsl 15 60 -4 4 0 0 empty empty empty 0 -9 0 10 -262144
-1 -1 0 1;
#X obj 143 212 vsl 15 60 -4 4 0 0 empty empty empty 0 -9 0 10 -262144
-1 -1 0 1;
#X obj 170 212 vsl 15 60 -4 4 0 0 empty empty empty 0 -9 0 10 -262144
-1 -1 0 1;
#X text 66 84 S vytvořenými objekty je ve scéně možné s pomocí
objektů [translateXYZ] \, [rotateXYZ] a [scaleXYZ] provádět základní
operace jako je posun \, rotace a škálování. Jednotlivé vstupy
odpovídají osám X \, Y a Z.;
#X obj 89 392 rotateXYZ;
#X floatatom 109 316 5 0 360 0 - - -;
#X floatatom 129 342 5 0 360 0 - - -;
#X floatatom 149 367 5 0 360 0 - - -;
#X obj 106 427 vsl 15 60 1 2 0 0 empty empty empty 0 -9 0 10 -262144
-1 -1 0 1;
#X obj 124 427 vsl 15 60 1 2 0 0 empty empty empty 0 -9 0 10 -262144
-1 -1 0 1;
#X obj 142 427 vsl 15 60 1 2 0 0 empty empty empty 0 -9 0 10 -262144
-1 -1 0 1;
#X msg 105 529 draw line;
#X obj 87 682 gemhead;
#X obj 87 660 tgl 15 1 empty empty empty 17 7 0 10 -262144 -1 -1 0
1;
#X obj 87 737 square;
#X text 199 206 Posun objektu po jednotlivých osách.;
#X text 199 219 Rozsah posuvníků je nastaven na -4..4.;
#X text 199 309 Rotace podél os ve stupních 0..360;
#X obj 421 687 gemhead;
#X obj 421 665 tgl 15 1 empty empty empty 17 7 0 10 -262144 -1 -1 0
1;
#X obj 421 742 square;
#X obj 255 685 gemhead;
#X obj 255 663 tgl 15 1 empty empty empty 17 7 0 10 -262144 -1 -1 0
1;
#X obj 255 740 square;
#X obj 87 709 translateXYZ 0 0 0;
#X obj 255 712 translateXYZ 2 2 0;
#X obj 421 714 translateXYZ 4 0 0;
#X obj 67 778 cnv 15 200 15 empty empty BARVA_A_PRŮHLEDNOST 2 8 0
12 -228856 -66577 0;
#X obj 560 937 circle;
#X obj 560 901 colorRGB;
#X obj 560 794 gemhead;
#X obj 571 829 vsl 15 60 0 1 0 0 empty empty empty 0 -9 0 10 -258113
-1 -1 0 1;
#X obj 589 829 vsl 15 60 0 1 0 0 empty empty empty 0 -9 0 10 -4034
-1 -1 0 1;
#X obj 607 829 vsl 15 60 0 1 0 0 empty empty empty 0 -9 0 10 -4160
-1 -1 0 1;
#X text 437 310 .;
#X text 199 420 Škálování. 1 je původní velikost \,;
#X text 199 433 2 odpovídá dvojnásobku.;
#X text 66 584 Přesné hodnoty lze objektům zadávat jako argumentny
při vytváření. V následujícím příkladu předáváme hodnoty
pro posun. V okně uvidíte tři čtverce \, které se dotýkají rohy.
Dvě jednotky posunu tedy odpovídají přesně délce hrany.;
#X text 66 790 Barvu nastavujeme objektem [colorRGB]. Do vstupů pro
každý jednotlivý barevný kanál (RGB - červená \, zelená \,
modrá) posíláme hodnoty v rozsahu 0..1. Pd \, ostatně jako i jiné
programy pro zpracování počítačové grafiky používají tzv.
aditivní způsob míchání barev \, používaný v monitorech a projektorech
- mícháme zde vyzařované světlo.;
#X text 66 890 Pokud je hodnota ve všech kanálech 0 \, výsledkem
je černá \, pokud je 1 \, vidíme bílou. Když vytáhneme posuvník
________ s jedním kanálem nahoru a ostatní dva budou dole \, bude
výsledkem maximální barva v daném kanálu.;
#X obj 415 909 cnv 15 60 15 empty empty empty 20 12 0 14 -262144 -66577
0;
#X obj 560 773 tgl 15 1 empty empty empty 17 7 0 10 -262144 -1 -1 1
1;
#X text 185 528 Zapněte vykreslení linií.;
#X connect 3 0 5 0;
#X connect 4 0 7 0;
#X connect 6 0 4 0;
#X connect 7 0 12 0;
#X connect 8 0 7 1;
#X connect 9 0 7 2;
#X connect 10 0 7 3;
#X connect 12 0 3 0;
#X connect 13 0 12 1;
#X connect 14 0 12 2;
#X connect 15 0 12 3;
#X connect 16 0 3 1;
#X connect 17 0 3 2;
#X connect 18 0 3 3;
#X connect 19 0 5 0;
#X connect 20 0 32 0;
#X connect 21 0 20 0;
#X connect 26 0 34 0;
#X connect 27 0 26 0;
#X connect 29 0 33 0;
#X connect 30 0 29 0;
#X connect 32 0 22 0;
#X connect 33 0 31 0;
#X connect 34 0 28 0;
#X connect 37 0 36 0;
#X connect 38 0 37 0;
#X connect 39 0 37 1;
#X connect 40 0 37 2;
#X connect 41 0 37 3;
#X connect 49 0 38 0;
