#N canvas 1 54 718 1017 12;
#X obj 67 73 cnv 15 200 15 empty empty VIDEO_MIX 2 8 0 12 -228856 -66577
0;
#X obj 860 107 cnv 15 100 60 empty empty empty 20 12 0 14 -262144 -66577
0;
#X obj 430 725 gemwin_abs;
#X obj 87 417 gemhead;
#X obj 117 502 gemhead;
#X obj 160 574 hsl 128 15 0 1 0 1 empty empty empty -2 -6 0 8 -262144
-1 -1 0 1;
#X floatatom 157 600 5 0 0 0 - - -;
#X obj 87 627 pix_mix 0;
#X obj 87 746 rectangle;
#X obj 143 686 unpack f f f;
#X obj 182 713 / 100;
#X obj 227 714 / 100;
#X msg 160 415 auto \$1;
#X obj 160 394 tgl 15 0 empty empty empty 17 7 0 10 -262144 -1 -1 0
1;
#X obj 117 534 pix_film;
#X msg 245 447 open robot_monster2.avi;
#X obj 87 457 pix_film;
#X obj 231 393 bng 15 250 50 0 empty empty empty 17 7 0 10 -262144
-1 -1;
#X msg 231 415 open robot_monster.avi;
#X msg 187 534 0;
#X msg 155 457 0;
#X obj 87 654 pix_texture;
#X text 399 407 Načteme soubory;
#X text 398 421 a zapneme přehrávání.;
#X text 221 533 Přehráváme ve smyčce.;
#X text 298 570 Nastavení parametru prolnutí.;
#X text 175 653 V případě [pix_film] nesmíme zapomenout na [pix_texture].
;
#X obj 67 781 cnv 15 200 15 empty empty OHÝBÁNÍ_VIDEO_SIGNÁLU 2
8 0 12 -228856 -66577 0;
#X obj 84 928 pix_gain;
#X obj 158 928 pix_blur;
#X obj 234 928 pix_aging;
#X obj 316 928 pix_lumaoffset;
#X text 66 329 K tomu \, aby [pix_mix] fungoval \, je zapotřebí \,
aby oba videosoubory měly stejné rozlišení a aby oba [pix_film]y
do [pix_mixu] dodávaly signál.;
#X text 66 85 Asi jste si u předchozích patchů všimli \, že za
objektem [pix_movie] v zobrazovacím řetězci není objekt [pix_texture].
Ten už má totiž [pix_movie] v sobě implementován. Když potřebujeme
jen jednoduše přehrát video \, pak použijeme [pix_movie]. Pokud
ale chceme po cestě s videosignálem ještě provádět další operace
- např. měnit jeho jas \, kontrast nebo videosignály promíchat
\, sáhneme po objektu [pix_film] \, jenž se podobá [pix_movie] \,
až na to \, že se nestará o texturování.;
#X text 66 228 Jádrem video mixu je objekt [pix_mix] \, jehož první
dva vstupy jsou určeny pro obrazová data ([pix_mix] ale umí prolnout
i statické obrazy). Třetí slouží k nastavení parametrů prolnutí.
Jde o rozsah 0..1 \, přičemž 0 odpovídá levému signálu a 1 pravému.
Posuvníkem s tímto rozsahem lze dvě videa jemně prolínat.;
#X text 66 793 Knihovna GEM obsahuje sbírku objektů \, které začínají
předponou pix_ \, s nimiž lze na obrazových datech provádět různé
operace. V zásadě jde o sbírku tradičních "postprodukčních"
video efektů. Podívejte se do dokumentace knihovny GEM (Nápověda
-> Pd Help Browser -> Gem) \, kde najdete řadu dokumentačních souborů
k jednotlivým pix_ objektům. Podívejte se např. na dokumentaci
k těmto objektům:;
#X connect 3 0 16 0;
#X connect 4 0 14 0;
#X connect 5 0 6 0;
#X connect 6 0 7 2;
#X connect 7 0 21 0;
#X connect 9 1 10 0;
#X connect 9 2 11 0;
#X connect 10 0 8 1;
#X connect 11 0 8 2;
#X connect 12 0 14 0;
#X connect 12 0 16 0;
#X connect 13 0 12 0;
#X connect 14 0 7 1;
#X connect 14 1 9 0;
#X connect 14 2 19 0;
#X connect 15 0 14 0;
#X connect 16 0 7 0;
#X connect 16 2 20 0;
#X connect 17 0 18 0;
#X connect 17 0 15 0;
#X connect 18 0 16 0;
#X connect 19 0 14 1;
#X connect 20 0 16 1;
#X connect 21 0 8 0;
