#N canvas 610 394 628 780 10;
#X obj 233 440 gemwin;
#X msg 19 304 create \, 1;
#X msg 50 330 0 \, destroy;
#X obj 102 102 tgl 15 0 empty empty empty 17 7 0 10 -258699 -1 -262144
0 1;
#X obj 19 215 sel 1;
#X floatatom 166 102 5 0 0 0 - - -;
#X floatatom 203 102 5 0 0 0 - - -;
#X obj 102 74 r tgl_color;
#X msg 19 355 \; tgl_color color 16;
#X msg 50 405 \; tgl_color color 43;
#X msg 191 319 cursor \$1;
#X obj 261 246 pack f f;
#X obj 166 10 loadbang;
#X msg 261 282 dimen \$1 \$2;
#X obj 122 102 tgl 15 0 empty empty empty 17 7 0 10 -262144 -1 -1 1
1;
#X obj 144 102 tgl 15 0 empty empty empty 17 7 0 10 -262144 -1 -1 1
1;
#X msg 166 38 800;
#X msg 203 38 600;
#X msg 122 277 border \$1;
#X msg 131 37 1;
#X obj 258 168 t b f;
#X connect 1 0 8 0;
#X connect 1 0 0 0;
#X connect 2 0 0 0;
#X connect 2 0 9 0;
#X connect 3 0 4 0;
#X connect 4 0 1 0;
#X connect 4 1 2 0;
#X connect 5 0 11 0;
#X connect 6 0 20 0;
#X connect 7 0 3 0;
#X connect 10 0 0 0;
#X connect 11 0 13 0;
#X connect 12 0 16 0;
#X connect 12 0 17 0;
#X connect 12 0 19 0;
#X connect 13 0 0 0;
#X connect 14 0 18 0;
#X connect 15 0 10 0;
#X connect 16 0 5 0;
#X connect 17 0 6 0;
#X connect 18 0 0 0;
#X connect 19 0 14 0;
#X connect 19 0 15 0;
#X connect 20 0 11 0;
#X connect 20 1 11 1;
#X coords 0 -1 1 1 138 20 2 100 100;
