#N canvas 284 580 517 552 10;
#X obj 69 247 pack s s;
#X obj 70 63 inlet;
#X obj 110 64 inlet;
#X obj 69 440 outlet;
#X obj 165 69 loadbang;
#X obj 268 292 &&;
#X obj 268 317 sel 1;
#X obj 328 262 > 1;
#X obj 222 261 > 1;
#X obj 165 92 t b b;
#X obj 328 240 jasch_lib/strlen;
#X obj 222 239 jasch_lib/strlen;
#X obj 69 415 symbol;
#X obj 110 87 t b a;
#X msg 69 270 \$1 kecá. Pravdu má \$2!;
#X obj 70 169 symbol \$1;
#X msg 69 367 Zajíc\ kecá.\ Pravdu\ má\ !;
#X obj 69 293 list;
#X obj 69 316 list2symbol;
#X msg 69 339 set \$1;
#X obj 131 398 print;
#X obj 137 167 symbol \$2;
#X obj 70 193 t a a;
#X obj 137 194 t a a;
#X obj 295 371 list2symbol;
#X msg 295 344 kratke vstupni argumenty;
#X connect 0 0 14 0;
#X connect 1 0 15 0;
#X connect 2 0 13 0;
#X connect 4 0 9 0;
#X connect 5 0 6 0;
#X connect 6 0 16 0;
#X connect 6 1 25 0;
#X connect 7 0 5 1;
#X connect 8 0 5 0;
#X connect 9 0 15 0;
#X connect 9 1 21 0;
#X connect 10 0 7 0;
#X connect 11 0 8 0;
#X connect 12 0 3 0;
#X connect 13 0 15 0;
#X connect 13 1 21 0;
#X connect 14 0 17 0;
#X connect 15 0 22 0;
#X connect 16 0 12 0;
#X connect 16 0 20 0;
#X connect 17 0 18 0;
#X connect 18 0 19 0;
#X connect 19 0 16 0;
#X connect 21 0 23 0;
#X connect 22 0 11 0;
#X connect 22 1 0 0;
#X connect 23 0 10 0;
#X connect 23 1 0 1;
#X connect 24 0 3 0;
#X connect 25 0 20 0;
#X connect 25 0 24 0;
