#N canvas 4 44 450 300 10;
#X obj 114 78 loadbang;
#X obj 114 113 float \$1;
#X obj 114 156 osc~;
#X obj 114 188 *~;
#X obj 115 224 *~ 0.1;
#X obj 162 156 osc~;
#X obj 181 78 loadbang;
#X obj 181 102 random 5000;
#X obj 181 127 / 5000;
#X obj 115 251 throw~ signal;
#X connect 0 0 1 0;
#X connect 1 0 2 0;
#X connect 2 0 3 0;
#X connect 3 0 4 0;
#X connect 4 0 9 0;
#X connect 5 0 3 1;
#X connect 6 0 7 0;
#X connect 7 0 8 0;
#X connect 8 0 5 0;
