#N canvas 1 54 450 300 10;
#X obj 76 180 outlet;
#X obj 137 180 outlet;
#X obj 76 129 f \$1;
#X obj 137 131 f \$2;
#X obj 199 128 f \$3;
#X obj 76 76 inlet;
#X obj 199 181 outlet;
#X obj 121 77 inlet;
#X obj 162 77 inlet;
#X obj 224 77 inlet;
#X obj 76 101 t b b b-----------;
#X text 78 56 bang;
#X text 128 57 red;
#X text 163 56 green;
#X text 228 58 blue;
#X text 208 155 RGBabs.pd;
#X connect 2 0 0 0;
#X connect 3 0 1 0;
#X connect 4 0 6 0;
#X connect 5 0 10 0;
#X connect 7 0 2 1;
#X connect 8 0 3 1;
#X connect 9 0 4 1;
#X connect 10 0 2 0;
#X connect 10 1 3 0;
#X connect 10 2 4 0;
