#N canvas 545 377 450 300 10;
#X msg 289 232 disconnect;
#X msg 248 190 connect 192.168.1.\$1 \$2;
#X obj 248 212 print;
#X obj 289 212 r net_net_disconnect;
#X obj 8 108 r speed;
#X obj 110 111 r freeze;
#X obj 11 163 r position;
#X obj 6 227 r transpo;
#X obj 248 73 initbang;
#X msg 248 147 add2 \$1;
#X obj 248 121 \$2;
#X obj 281 120 \$3;
#X obj 157 260 sendOSC;
#X msg 8 132 send /speed \$1;
#X msg 110 132 send /freeze \$1;
#X msg 11 185 send /position \$1;
#X msg 6 251 send /transpo \$1;
#X obj 313 144 r net_connect;
#X obj 109 50 r sample;
#X msg 109 71 send /sample \$1;
#X msg 248 168;
#X obj 248 95 t b b b;
#X msg 310 121 set;
#X connect 0 0 12 0;
#X connect 1 0 2 0;
#X connect 1 0 12 0;
#X connect 3 0 0 0;
#X connect 4 0 13 0;
#X connect 5 0 14 0;
#X connect 6 0 15 0;
#X connect 7 0 16 0;
#X connect 8 0 21 0;
#X connect 9 0 20 0;
#X connect 10 0 9 0;
#X connect 11 0 9 0;
#X connect 13 0 12 0;
#X connect 14 0 12 0;
#X connect 15 0 12 0;
#X connect 16 0 12 0;
#X connect 17 0 20 0;
#X connect 18 0 19 0;
#X connect 19 0 12 0;
#X connect 20 0 1 0;
#X connect 21 0 10 0;
#X connect 21 1 11 0;
#X connect 21 2 22 0;
#X connect 22 0 20 0;
