#N canvas 423 48 852 568 10;
#X obj 150 26 r head_x;
#X obj 380 24 r head_y;
#X obj 495 31 iem_r;
#X obj 265 26 iem_r;
#X msg 265 5 set speaker_x-\$1;
#X msg 495 10 set speaker_y-\$1;
#X obj 193 -51 \$1;
#X obj 193 -94 initbang;
#X floatatom 103 102 2 0 0 0 - - -;
#X floatatom 122 102 5 0 0 0 - - -;
#X obj 121 126 <;
#X obj 168 177 r radius;
#X obj 150 60 expr sqrt(pow(abs($f1 - $f2) \, 2) + pow(abs($f3 - $f4)
\, 2));
#X obj 124 177 spigot;
#X floatatom 124 200 5 0 0 0 - - -;
#X floatatom 168 202 5 0 0 0 - - -;
#X obj 158 102 tgl 15 0 empty empty empty 17 7 0 10 -262144 -1 -1 0
1;
#X obj 180 102 tgl 15 0 empty empty empty 17 7 0 10 -262144 -1 -1 0
1;
#X obj 237 392 udpsend;
#X msg 278 361 disconnect;
#X obj 237 427 tgl 15 0 empty empty 1=connected 20 8 0 8 -4034 -257985
-1 1 1;
#X obj 193 -74 t b b b;
#X msg 237 319 connect 192.168.1.\$1 \$2;
#X obj 237 341 print;
#X msg 200 81 add2 \$1;
#X obj 221 -52 \$2;
#X obj 249 -52 \$3;
#X msg 150 354 send \$1;
#X obj 262 103 bng 15 250 50 0 empty empty empty 17 7 0 10 -262144
-1 -1;
#X obj 124 222 expr_scale 0 0 0 100;
#X obj 124 245 i;
#X obj 278 341 r net_net_disconnect;
#X obj 123 267 change;
#X obj 260 196 sel 0;
#X msg 260 221 0 \, 0;
#X obj 260 172 change;
#X msg 200 101;
#X obj 297 100 r net_connect;
#X connect 0 0 12 0;
#X connect 1 0 12 2;
#X connect 2 0 12 3;
#X connect 3 0 12 1;
#X connect 4 0 3 0;
#X connect 5 0 2 0;
#X connect 6 0 5 0;
#X connect 6 0 4 0;
#X connect 6 0 8 0;
#X connect 7 0 21 0;
#X connect 9 0 10 0;
#X connect 10 0 13 1;
#X connect 10 0 16 0;
#X connect 10 0 35 0;
#X connect 11 0 10 1;
#X connect 11 0 15 0;
#X connect 12 0 9 0;
#X connect 12 0 13 0;
#X connect 13 0 14 0;
#X connect 14 0 29 0;
#X connect 15 0 29 1;
#X connect 18 0 20 0;
#X connect 19 0 18 0;
#X connect 21 0 6 0;
#X connect 21 1 25 0;
#X connect 21 2 26 0;
#X connect 22 0 23 0;
#X connect 22 0 18 0;
#X connect 24 0 36 0;
#X connect 25 0 24 0;
#X connect 26 0 24 0;
#X connect 27 0 18 0;
#X connect 28 0 36 0;
#X connect 29 0 30 0;
#X connect 30 0 32 0;
#X connect 31 0 19 0;
#X connect 32 0 27 0;
#X connect 33 0 34 0;
#X connect 34 0 27 0;
#X connect 35 0 33 0;
#X connect 36 0 22 0;
#X connect 37 0 28 0;
#X coords 0 -1 1 1 180 20 2 100 100;
